<svg xmlns="http://www.w3.org/2000/svg" width="680" height="420">
<rect width="680" height="420" fill="white"/>
<text x="340.0" y="22" text-anchor="middle" font-size="15" font-family="sans-serif">GA convergence (best train F per generation)</text>
<text x="20" y="202.5" text-anchor="middle" font-size="12" font-family="sans-serif" transform="rotate(-90 20 202.5)">best train F (lower is better)</text>
<text x="365.0" y="408" text-anchor="middle" font-size="12" font-family="sans-serif">generation</text>
<line x1="70" y1="365.0" x2="660" y2="365.0" stroke="#e0e0e0"/><text x="62" y="369.0" text-anchor="end" font-size="10" font-family="sans-serif">27.61</text>
<line x1="70" y1="283.75000000000006" x2="660" y2="283.75000000000006" stroke="#e0e0e0"/><text x="62" y="287.75000000000006" text-anchor="end" font-size="10" font-family="sans-serif">29.82</text>
<line x1="70" y1="202.5000000000001" x2="660" y2="202.5000000000001" stroke="#e0e0e0"/><text x="62" y="206.5000000000001" text-anchor="end" font-size="10" font-family="sans-serif">32.02</text>
<line x1="70" y1="121.24999999999991" x2="660" y2="121.24999999999991" stroke="#e0e0e0"/><text x="62" y="125.24999999999991" text-anchor="end" font-size="10" font-family="sans-serif">34.23</text>
<line x1="70" y1="40.0" x2="660" y2="40.0" stroke="#e0e0e0"/><text x="62" y="44.0" text-anchor="end" font-size="10" font-family="sans-serif">36.44</text>
<polyline points="70.0,298.4 168.3,298.4 266.7,298.6 365.0,312.8 463.3,312.9 561.7,331.4 660.0,342.6" fill="none" stroke="#1f77b4" stroke-width="2"/>
<rect x="78" y="12" width="12" height="12" fill="#1f77b4"/><text x="94" y="22" font-size="12" font-family="sans-serif">vanilla GA</text>
<polyline points="70.0,62.4 168.3,151.5 266.7,226.7 365.0,226.7 463.3,293.9 561.7,298.6 660.0,321.7" fill="none" stroke="#d62728" stroke-width="2"/>
<rect x="228" y="12" width="12" height="12" fill="#d62728"/><text x="244" y="22" font-size="12" font-family="sans-serif">guided GA</text>
</svg>